# xmcd
# 
# Track frame offsets:
#     183
#     21300
#     40293
#     61355
#     82768
#     103425
#     123330
#     144600
#     165615
#     187225
# 
# Disc length: 2744
# 
# Revision: 2
# Processed by: cddbd v1.5.2PL0 Copyright (c) Steve Scherf et al.
# Submitted via: fre:ac v1.0.17
# 
DISCID=8d0ab60a
DTITLE=Juan Pardo - Año  Nuevo
DYEAR=1995
DGENRE=
TTITLE0=Campos de remesar
TTITLE1=Bienvenida Señora
TTITLE2=Año nuevo
TTITLE3=El viejo
TTITLE4=Adios amor
TTITLE5=Te echo de menos
TTITLE6=Celos
TTITLE7=Al vacio
TTITLE8=Venganza
TTITLE9=Feitos
EXTD=lecio
EXTT0=
EXTT1=
EXTT2=
EXTT3=
EXTT4=
EXTT5=
EXTT6=
EXTT7=
EXTT8=
EXTT9=
PLAYORDER=
